<svg width="213" height="41" viewBox="0 0 213 41" fill="none" xmlns="http://www.w3.org/2000/svg">
<path fill-rule="evenodd" clip-rule="evenodd" d="M12.0111 20.6658V16.3292L0.0228271 20.785H0.00012207V25.2352H0.0228271L12.0111 29.6911V25.3487L5.86369 22.9988L12.0111 20.6601V20.6658Z" fill="#F7DD43"/>
<path fill-rule="evenodd" clip-rule="evenodd" d="M81.4487 29.4753V25.1386L87.5904 22.8057L81.4487 20.4727V16.1361L93.4199 20.5919H93.4483V25.0478H93.4199L81.4487 29.481V29.4753ZM76.306 10.0001L69.2675 32.5972H73.4452L80.4837 10.0001H76.306Z" fill="#F7DD43"/>
<path fill-rule="evenodd" clip-rule="evenodd" d="M29.6247 15.7331C30.8167 17.0386 31.4411 18.7642 31.3673 20.5295V30.1564H27.1895V21.415C27.2406 20.4387 26.9284 19.4851 26.3154 18.7245C25.7364 18.049 24.8793 17.6743 23.9881 17.7141C21.3714 17.7141 20.0602 19.5305 20.0602 23.1576V30.1564H15.8824V14.3537H20.0602V15.7785C21.3884 14.49 23.1878 13.8031 25.0382 13.8826C26.7638 13.8088 28.4326 14.4843 29.6247 15.7331Z" fill="#F7DD43"/>
<path fill-rule="evenodd" clip-rule="evenodd" d="M36.6916 7.55933V30.1565H40.8693V7.55933H36.6916Z" fill="#F7DD43"/>
<path fill-rule="evenodd" clip-rule="evenodd" d="M64.4935 30.1564H61.0083L57.5912 20.8474L54.14 30.1564H50.6548L44.7969 14.3254H49.2641L52.5564 23.7934L55.9508 14.3254H59.2146L62.609 23.8217L65.9012 14.3254H70.3684L64.5049 30.1564H64.4935Z" fill="#F7DD43"/>
<path d="M116.135 40.5478C111.855 40.5478 107.357 39.7367 103.832 37.7832V3.31675C107.302 1.41846 111.799 0.552126 116.135 0.552126C120.471 0.552126 124.862 1.36325 128.328 3.31675V16.5411H119.601V7.54224C118.573 7.10907 117.324 6.9477 116.08 6.9477C114.836 6.9477 113.693 7.10907 112.61 7.54224V33.5577C113.638 33.9909 114.831 34.1522 116.08 34.1522C117.329 34.1522 118.518 33.9909 119.601 33.5577V24.5631H128.328V37.7874C124.913 39.6857 120.416 40.4969 116.135 40.5521V40.5478Z" fill="#F7DD43"/>
<path d="M144.695 40.5478C140.087 40.5478 135.645 39.571 132.12 37.5665V3.47806C135.59 1.52881 140.036 0.552063 144.695 0.552063C149.353 0.552063 153.689 1.4736 157.159 3.47806V37.5665C153.744 39.571 149.247 40.4925 144.695 40.5478ZM148.436 7.65259C147.408 7.21943 146.16 7.00284 144.644 7.00284C143.128 7.00284 141.934 7.21943 140.902 7.65259V33.3963C141.93 33.8846 143.179 34.1012 144.644 34.1012C146.109 34.1012 147.353 33.8846 148.436 33.3963V7.65259Z" fill="#F7DD43"/>
<path d="M172.387 25.9135H170.056V40.0594H161.223V1.04046H172.387C177.7 1.04046 181.709 2.12338 184.852 4.34442V22.6096C181.764 24.7797 177.696 25.9135 172.387 25.9135ZM176.074 7.75879C175.262 7.16424 174.175 6.89245 172.332 6.89245H169.946V20.0616H172.332C174.12 20.0616 175.203 19.7898 176.074 19.2504V7.75879Z" fill="#F7DD43"/>
<path d="M203.329 40.0594V25.9135H196.827V40.0594H188.049V3.42285C191.247 1.52456 195.744 0.552063 200.08 0.552063C204.416 0.552063 208.858 1.52881 212.056 3.42285V40.0594H203.329ZM203.329 7.3256C202.408 6.89243 201.269 6.67585 200.076 6.67585C198.883 6.67585 197.745 6.89243 196.823 7.3256V19.7345H203.325V7.3256H203.329Z" fill="#F7DD43"/>
</svg>
